<?xml version="1.0" encoding="UTF-8"?>
<svg id="Layer_2" data-name="Layer 2" xmlns="http://www.w3.org/2000/svg" viewBox="0 0 745.4 628.35">
  <defs>
    <style>
      .cls-1 {
        fill: #006378;
      }

      .cls-1, .cls-2 {
        stroke-width: 0px;
      }

      .cls-2 {
        fill: #1d98a8;
      }
    </style>
  </defs>
  <g id="Layer_1-2" data-name="Layer 1">
    <g>
      <g>
        <path class="cls-2" d="M524.71,319.74c-3.53-10.54-9-19.94-16.83-27.91-13.2-13.44-29.64-20.51-47.71-24.37-4.06-.86-8.17-1.47-12.69-2.27,5.93-5.04,10.76-10.4,15.19-16.12,10.07-13,16.85-27.38,18.36-43.95.88-9.63-.58-18.99-3.21-28.24-1.89-6.67-6.07-10.33-12.89-10.18-13.74.31-26.68,3.67-38.44,10.97-12.85,7.97-22.33,19.15-29.97,32.01-2.48,4.17-4.67,8.52-7.09,12.94-.36-.5-.66-.79-.83-1.15-3.23-6.99-7.11-13.6-11.63-19.82-15.42-21.21-35.53-33.94-62.38-34.53-7.46-.16-11.74,2.79-13.79,10.01-3.68,12.98-4.25,26.09-1.07,39.27,3.73,15.5,11.92,28.54,22.55,40.15,2.75,3.01,5.93,5.63,8.92,8.43-.17.24-.33.48-.51.72-8.07,1.2-16.06,2.69-23.81,5.28-24.47,8.17-42.6,23.11-51.51,48.01-2.7,7.54-1.14,12.73,5.64,17.22,17.12,11.33,35.8,15.11,56.01,11.46,4.62-.83,9.12-2.15,14-3.41-.46,1.05-.74,1.73-1.06,2.38-10.92,22.43-16.09,46.05-14.96,71.03.63,14.07,3.14,27.8,7.09,41.29.19.64,1.33,1.34.42,1.94-.8.52-1.27-.59-1.75-1.09-6.57-6.79-13.06-13.67-19.71-20.38-1.52-1.53-1.69-2.55-.46-4.36,7.47-11.07,9.01-23.21,5.18-35.81-6.23-20.49-18.48-36.5-37.43-46.76-21.59-11.69-45.24-14.4-69.31-14.61-3.37-.03-5.52,2.41-5.74,5.88-.12,1.85.05,3.71.09,5.57.37,16.88,2.48,33.46,8.29,49.42,9.08,24.91,25.16,42.72,51,50.89,13.41,4.24,26.12,3.71,37.88-4.6,2-1.41,3.03-1.09,4.58.51,8.14,8.45,16.41,16.79,25.29,24.45,5.46,4.72,10.1,9.8,12.23,16.84.29.96.85,1.84,1.28,2.75,5.78,12.21,12.31,24,19.66,35.33,1.71,2.65,2.58,2.75,5.07.98,1.71-1.22,3.42-2.49,5.25-3.51,1.96-1.1,2.06-2.26.9-4.07-3.06-4.75-6.12-9.51-8.93-14.41-12.87-22.48-22.87-46.04-26.64-71.9-5.07-34.77,1.92-66.74,22.13-95.66.5-.72.81-1.71,1.93-1.83.54.65.15,1.27.05,1.9-1.9,11.72-2.68,23.48-1.2,35.3,2.7,21.62,12.7,39.05,30.15,52.13,4.76,3.57,10.32,3.69,15.02.24,8.18-6.01,15.02-13.29,20.23-22.04,9.84-16.5,11.91-34.53,10.29-53.23-.42-4.85-1.22-9.66-1.88-14.82,1.15.57,2.05,1,2.93,1.46,7.9,4.03,16.02,7.48,24.6,9.79,23.7,6.38,45.96,3.84,66.29-10.65,5.17-3.69,6.95-8.86,4.93-14.91ZM291.33,426.2c-.99,1.84-1.62,2.09-3.26.49-15.78-15.46-31.42-31.08-48.63-45.01-1.54-1.24-2.98-2.73-5.59-2.91,6.9,9.48,14.17,18.1,21.89,26.34,8.71,9.29,17.59,18.42,26.49,27.53,1.41,1.44,1.06,2-.41,2.92-7.19,4.49-14.78,4.4-22.66,2.35-23.55-6.14-37.9-21.79-45.78-44.14-4.55-12.91-6.3-26.35-7.21-39.92-.11-1.69-.39-3.48,2.4-3.24,16.57,1.44,33.08,3.33,48.42,10.32,18.15,8.28,30.31,22.12,36.54,41.04,2.73,8.3,1.98,16.45-2.2,24.23ZM509.82,326.11c-16.73,10.76-34.69,12.15-53.42,6.8-20.29-5.8-37.47-17-52.95-31.07-.56-.51-1.15-.97-1.73-1.46-.29-.21-.65-.45-.9-.72.13.41.27.81.43,1.21,2.92,7.08,6.07,14.06,8.39,21.38,5.05,15.88,7.17,32.08,5.19,48.69-1.99,16.78-9.67,30.49-22.7,41.24-1.78,1.47-2.93,1.12-4.56-.21-17.87-14.62-24.34-34-23.5-56.37.69-18.36,5.38-35.76,13.11-52.38.32-.69.65-1.37.97-2.06.02-.03-.09-.12-.22-.28-1.23.09-1.95,1.07-2.78,1.84-13.72,12.53-28.96,22.58-46.57,28.78-16.34,5.75-32.72,7.09-49.13.29-3.58-1.49-6.97-3.36-10.28-5.41-2-1.24-2.2-2.54-1.38-4.63,6.75-17.24,18.9-29.02,35.9-36.04,17.19-7.11,35.16-9.01,53.54-8.17,4.77.22,9.53.72,14.78,1.13-4.64-2.78-8.93-5.19-13.07-7.84-14.43-9.25-26.94-20.57-36.59-34.83-10.71-15.85-14.69-33.12-10.27-52,.93-3.99,1.38-4.45,5.48-4.13,17.15,1.33,31.28,8.73,42.67,21.52,14.28,16.03,22.44,35.07,27.36,55.7.6,2.52,1.1,5.07,2.19,7.65.6-2.71,1.17-5.42,1.79-8.12,4.58-19.73,12.3-37.99,25.35-53.7,10.61-12.77,23.91-21.08,40.59-22.88,9.69-1.04,7.83-2.17,9.69,6.51,3.53,16.45-.05,31.67-8.6,45.83-10.12,16.76-24.36,29.38-40.7,39.81-2.84,1.81-5.81,3.4-8.72,5.09-.48.27-1.27.38-.98,1.18.26.73.89.49,1.5.4,22.78-3.59,45.05-1.93,66.56,6.78,16.67,6.75,28.69,18.29,35.36,35.17,1.18,2.99,1,3.52-1.8,5.32Z"/>
        <path class="cls-2" d="M400.83,299.66c.13.41.27.81.43,1.21.16-.16.31-.32.47-.49-.29-.21-.65-.45-.9-.72Z"/>
      </g>
      <polygon class="cls-1" points="72.14 299.74 85.33 299.66 85.33 611.44 72.14 611.44 72.14 299.74"/>
      <path class="cls-2" d="M666.97,442.08c-5.68,47.16-15.12,85.86-28.06,115.03-13.89,31.29-31.84,51.63-53.37,60.44-4.64,1.9-28.13,10.8-60.22,10.8-2.31,0-4.67-.05-7.06-.14-21.54-.88-42.95-5.94-63.63-15.05-16.67-7.33-32.94-17.32-48.36-29.67-26.51-21.23-42.18-42.74-45.06-46.83-2.79-3.98-5.46-8.09-7.94-12.22l11.31-6.78c2.32,3.87,4.82,7.72,7.43,11.43,2.69,3.84,17.4,24.01,42.51,44.12,32.8,26.27,67.88,40.35,104.28,41.84,33.64,1.38,58.97-8.55,61.75-9.68,18.27-7.48,33.85-25.51,46.31-53.58,12.41-27.97,21.51-65.4,27.02-111.25,4.79-39.83,6.81-85.04,6.1-134.58-.09-6.28-.23-12.64-.41-19.06l13.5,13.5c.12,6.36.19,12.65.21,18.86.2,44.89-1.89,86.11-6.31,122.85Z"/>
      <path class="cls-1" d="M372.7,0L0,372.7h18.65L372.7,18.65l287.28,287.28,13.3,13.3,53.47,53.47h18.65L372.7,0Z"/>
    </g>
  </g>
</svg>