<?xml version="1.0" encoding="UTF-8"?>
<svg id="Layer_2" data-name="Layer 2" xmlns="http://www.w3.org/2000/svg" viewBox="0 0 745.4 928.01">
  <defs>
    <style>
      .cls-1 {
        fill: #fff;
        stroke-width: 0px;
      }
    </style>
  </defs>
  <g id="Layer_1-2" data-name="Layer 1">
    <g>
      <g>
        <g>
          <path class="cls-1" d="M524.71,319.74c-3.53-10.54-9-19.94-16.83-27.91-13.2-13.44-29.64-20.51-47.71-24.37-4.06-.86-8.17-1.47-12.69-2.27,5.93-5.04,10.76-10.4,15.19-16.12,10.07-13,16.85-27.38,18.36-43.95.88-9.63-.58-18.99-3.21-28.24-1.89-6.67-6.07-10.33-12.89-10.18-13.74.31-26.68,3.67-38.44,10.97-12.85,7.97-22.33,19.15-29.97,32.01-2.48,4.17-4.67,8.52-7.09,12.94-.36-.5-.66-.79-.83-1.15-3.23-6.99-7.11-13.6-11.63-19.82-15.42-21.21-35.53-33.94-62.38-34.53-7.46-.16-11.74,2.79-13.79,10.01-3.68,12.98-4.25,26.09-1.07,39.27,3.73,15.5,11.92,28.54,22.55,40.15,2.75,3.01,5.93,5.63,8.92,8.43-.17.24-.33.48-.51.72-8.07,1.2-16.06,2.69-23.81,5.28-24.47,8.17-42.6,23.11-51.51,48.01-2.7,7.54-1.14,12.73,5.64,17.22,17.12,11.33,35.8,15.11,56.01,11.46,4.62-.83,9.12-2.15,14-3.41-.46,1.05-.74,1.73-1.06,2.38-10.92,22.43-16.09,46.05-14.96,71.03.63,14.07,3.14,27.8,7.09,41.29.19.64,1.33,1.34.42,1.94-.8.52-1.27-.59-1.75-1.09-6.57-6.79-13.06-13.67-19.71-20.38-1.52-1.53-1.69-2.55-.46-4.36,7.47-11.07,9.01-23.21,5.18-35.81-6.23-20.49-18.48-36.5-37.43-46.76-21.59-11.69-45.24-14.4-69.31-14.61-3.37-.03-5.52,2.41-5.74,5.88-.12,1.85.05,3.71.09,5.57.37,16.88,2.48,33.46,8.29,49.42,9.08,24.91,25.16,42.72,51,50.89,13.41,4.24,26.12,3.71,37.88-4.6,2-1.41,3.03-1.09,4.58.51,8.14,8.45,16.41,16.79,25.29,24.45,5.46,4.72,10.1,9.8,12.23,16.84.29.96.85,1.84,1.28,2.75,5.78,12.21,12.31,24,19.66,35.33,1.71,2.65,2.58,2.75,5.07.98,1.71-1.22,3.42-2.49,5.25-3.51,1.96-1.1,2.06-2.26.9-4.07-3.06-4.75-6.12-9.51-8.93-14.41-12.87-22.48-22.87-46.04-26.64-71.9-5.07-34.77,1.92-66.74,22.13-95.66.5-.72.81-1.71,1.93-1.83.54.65.15,1.27.05,1.9-1.9,11.72-2.68,23.48-1.2,35.3,2.7,21.62,12.7,39.05,30.15,52.13,4.76,3.57,10.32,3.69,15.02.24,8.18-6.01,15.02-13.29,20.23-22.04,9.84-16.5,11.91-34.53,10.29-53.23-.42-4.85-1.22-9.66-1.88-14.82,1.15.57,2.05,1,2.93,1.46,7.9,4.03,16.02,7.48,24.6,9.79,23.7,6.38,45.96,3.84,66.29-10.65,5.17-3.69,6.95-8.86,4.93-14.91ZM291.33,426.2c-.99,1.84-1.62,2.09-3.26.49-15.78-15.46-31.42-31.08-48.63-45.01-1.54-1.24-2.98-2.73-5.59-2.91,6.9,9.48,14.17,18.1,21.89,26.34,8.71,9.29,17.59,18.42,26.49,27.53,1.41,1.44,1.06,2-.41,2.92-7.19,4.49-14.78,4.4-22.66,2.35-23.55-6.14-37.9-21.79-45.78-44.14-4.55-12.91-6.3-26.35-7.21-39.92-.11-1.69-.39-3.48,2.4-3.24,16.57,1.44,33.08,3.33,48.42,10.32,18.15,8.28,30.31,22.12,36.54,41.04,2.73,8.3,1.98,16.45-2.2,24.23ZM509.82,326.11c-16.73,10.76-34.69,12.15-53.42,6.8-20.29-5.8-37.47-17-52.95-31.07-.56-.51-1.15-.97-1.73-1.46-.29-.21-.65-.45-.9-.72.13.41.27.81.43,1.21,2.92,7.08,6.07,14.06,8.39,21.38,5.05,15.88,7.17,32.08,5.19,48.69-1.99,16.78-9.67,30.49-22.7,41.24-1.78,1.47-2.93,1.12-4.56-.21-17.87-14.62-24.34-34-23.5-56.37.69-18.36,5.38-35.76,13.11-52.38.32-.69.65-1.37.97-2.06.02-.03-.09-.12-.22-.28-1.23.09-1.95,1.07-2.78,1.84-13.72,12.53-28.96,22.58-46.57,28.78-16.34,5.75-32.72,7.09-49.13.29-3.58-1.49-6.97-3.36-10.28-5.41-2-1.24-2.2-2.54-1.38-4.63,6.75-17.24,18.9-29.02,35.9-36.04,17.19-7.11,35.16-9.01,53.54-8.17,4.77.22,9.53.72,14.78,1.13-4.64-2.78-8.93-5.19-13.07-7.84-14.43-9.25-26.94-20.57-36.59-34.83-10.71-15.85-14.69-33.12-10.27-52,.93-3.99,1.38-4.45,5.48-4.13,17.15,1.33,31.28,8.73,42.67,21.52,14.28,16.03,22.44,35.07,27.36,55.7.6,2.52,1.1,5.07,2.19,7.65.6-2.71,1.17-5.42,1.79-8.12,4.58-19.73,12.3-37.99,25.35-53.7,10.61-12.77,23.91-21.08,40.59-22.88,9.69-1.04,7.83-2.17,9.69,6.51,3.53,16.45-.05,31.67-8.6,45.83-10.12,16.76-24.36,29.38-40.7,39.81-2.84,1.81-5.81,3.4-8.72,5.09-.48.27-1.27.38-.98,1.18.26.73.89.49,1.5.4,22.78-3.59,45.05-1.93,66.56,6.78,16.67,6.75,28.69,18.29,35.36,35.17,1.18,2.99,1,3.52-1.8,5.32Z"/>
          <path class="cls-1" d="M400.83,299.66c.13.41.27.81.43,1.21.16-.16.31-.32.47-.49-.29-.21-.65-.45-.9-.72Z"/>
        </g>
        <polygon class="cls-1" points="72.14 299.74 85.33 299.66 85.33 611.44 72.14 611.44 72.14 299.74"/>
        <path class="cls-1" d="M666.97,442.08c-5.68,47.16-15.12,85.86-28.06,115.03-13.89,31.29-31.84,51.63-53.37,60.44-4.64,1.9-28.13,10.8-60.22,10.8-2.31,0-4.67-.05-7.06-.14-21.54-.88-42.95-5.94-63.63-15.05-16.67-7.33-32.94-17.32-48.36-29.67-26.51-21.23-42.18-42.74-45.06-46.83-2.79-3.98-5.46-8.09-7.94-12.22l11.31-6.78c2.32,3.87,4.82,7.72,7.43,11.43,2.69,3.84,17.4,24.01,42.51,44.12,32.8,26.27,67.88,40.35,104.28,41.84,33.64,1.38,58.97-8.55,61.75-9.68,18.27-7.48,33.85-25.51,46.31-53.58,12.41-27.97,21.51-65.4,27.02-111.25,4.79-39.83,6.81-85.04,6.1-134.58-.09-6.28-.23-12.64-.41-19.06l13.5,13.5c.12,6.36.19,12.65.21,18.86.2,44.89-1.89,86.11-6.31,122.85Z"/>
        <path class="cls-1" d="M372.7,0L0,372.7h18.65L372.7,18.65l287.28,287.28,13.3,13.3,53.47,53.47h18.65L372.7,0Z"/>
      </g>
      <g>
        <path class="cls-1" d="M124.56,848.77h-21.44v59.13h-11.85v-59.13h-21.25v-9.63h54.55v9.63Z"/>
        <path class="cls-1" d="M155.06,907.89c-.5-.97-.94-2.57-1.32-4.77-3.65,3.81-8.12,5.72-13.41,5.72s-9.32-1.47-12.56-4.39c-3.24-2.93-4.87-6.55-4.87-10.86,0-5.45,2.02-9.63,6.07-12.54,4.04-2.91,9.83-4.37,17.35-4.37h7.04v-3.35c0-2.64-.74-4.76-2.22-6.35-1.48-1.59-3.73-2.38-6.75-2.38-2.61,0-4.75.65-6.42,1.96-1.67,1.31-2.5,2.97-2.5,4.98h-11.48c0-2.8.93-5.42,2.79-7.86,1.86-2.44,4.38-4.35,7.58-5.74,3.2-1.38,6.76-2.08,10.7-2.08,5.98,0,10.75,1.5,14.31,4.51,3.56,3.01,5.38,7.23,5.48,12.68v23.05c0,4.6.64,8.26,1.94,11v.8h-11.71ZM142.45,899.63c2.27,0,4.4-.55,6.4-1.65,2-1.1,3.5-2.58,4.51-4.44v-9.63h-6.18c-4.25,0-7.45.74-9.59,2.22-2.14,1.48-3.21,3.57-3.21,6.28,0,2.2.73,3.96,2.2,5.27,1.46,1.31,3.42,1.96,5.88,1.96Z"/>
        <path class="cls-1" d="M189.11,898.73h27.2v9.16h-41.46v-7.51l25.93-34.33h-25.45v-9.26h40v7.27l-26.21,34.66Z"/>
        <path class="cls-1" d="M256.03,907.89c-.5-.97-.94-2.57-1.32-4.77-3.65,3.81-8.12,5.72-13.41,5.72s-9.32-1.47-12.56-4.39c-3.24-2.93-4.87-6.55-4.87-10.86,0-5.45,2.02-9.63,6.07-12.54,4.04-2.91,9.83-4.37,17.35-4.37h7.04v-3.35c0-2.64-.74-4.76-2.22-6.35-1.48-1.59-3.73-2.38-6.75-2.38-2.61,0-4.75.65-6.42,1.96-1.67,1.31-2.5,2.97-2.5,4.98h-11.48c0-2.8.93-5.42,2.79-7.86,1.86-2.44,4.38-4.35,7.58-5.74,3.2-1.38,6.76-2.08,10.7-2.08,5.98,0,10.75,1.5,14.31,4.51,3.56,3.01,5.38,7.23,5.48,12.68v23.05c0,4.6.64,8.26,1.94,11v.8h-11.71ZM243.42,899.63c2.27,0,4.4-.55,6.4-1.65,2-1.1,3.5-2.58,4.51-4.44v-9.63h-6.18c-4.25,0-7.45.74-9.59,2.22-2.14,1.48-3.21,3.57-3.21,6.28,0,2.2.73,3.96,2.2,5.27,1.46,1.31,3.42,1.96,5.88,1.96Z"/>
        <path class="cls-1" d="M304.58,867.28c-1.51-.25-3.07-.38-4.68-.38-5.26,0-8.8,2.01-10.63,6.04v34.95h-11.47v-51.1h10.96l.28,5.71c2.77-4.44,6.61-6.66,11.52-6.66,1.64,0,2.99.22,4.06.66l-.05,10.77Z"/>
        <path class="cls-1" d="M328.43,885.98l-5.1,5.24v16.67h-11.48v-72.54h11.48v41.84l3.59-4.49,14.12-15.92h13.79l-18.98,21.3,21.02,29.8h-13.27l-15.16-21.91Z"/>
        <path class="cls-1" d="M392.84,907.89c-.5-.97-.94-2.57-1.32-4.77-3.65,3.81-8.12,5.72-13.41,5.72s-9.32-1.47-12.56-4.39c-3.24-2.93-4.87-6.55-4.87-10.86,0-5.45,2.02-9.63,6.07-12.54,4.04-2.91,9.83-4.37,17.35-4.37h7.04v-3.35c0-2.64-.74-4.76-2.22-6.35-1.48-1.59-3.73-2.38-6.75-2.38-2.61,0-4.75.65-6.42,1.96-1.67,1.31-2.5,2.97-2.5,4.98h-11.48c0-2.8.93-5.42,2.79-7.86,1.86-2.44,4.38-4.35,7.58-5.74,3.2-1.38,6.76-2.08,10.7-2.08,5.98,0,10.75,1.5,14.31,4.51s5.38,7.23,5.48,12.68v23.05c0,4.6.64,8.26,1.94,11v.8h-11.71ZM380.23,899.63c2.27,0,4.4-.55,6.4-1.65,2-1.1,3.5-2.58,4.51-4.44v-9.63h-6.18c-4.25,0-7.45.74-9.59,2.22-2.14,1.48-3.21,3.57-3.21,6.28,0,2.2.73,3.96,2.2,5.27,1.46,1.31,3.42,1.96,5.88,1.96Z"/>
        <path class="cls-1" d="M451.78,882.39v25.5h-11.95v-68.76h26.3c7.68,0,13.78,2,18.3,6,4.52,4,6.78,9.3,6.78,15.88s-2.21,11.99-6.64,15.75c-4.42,3.75-10.62,5.62-18.58,5.62h-14.21ZM451.78,872.76h14.36c4.25,0,7.49-1,9.73-3,2.23-2,3.35-4.89,3.35-8.66s-1.13-6.68-3.4-8.9c-2.27-2.22-5.38-3.36-9.35-3.42h-14.69v23.99Z"/>
        <path class="cls-1" d="M512.75,907.89h-11.48v-72.54h11.48v72.54Z"/>
        <path class="cls-1" d="M555.77,907.89c-.5-.97-.94-2.57-1.32-4.77-3.65,3.81-8.12,5.72-13.41,5.72s-9.32-1.47-12.56-4.39c-3.24-2.93-4.87-6.55-4.87-10.86,0-5.45,2.02-9.63,6.07-12.54,4.04-2.91,9.83-4.37,17.35-4.37h7.04v-3.35c0-2.64-.74-4.76-2.22-6.35-1.48-1.59-3.73-2.38-6.75-2.38-2.61,0-4.75.65-6.42,1.96-1.67,1.31-2.5,2.97-2.5,4.98h-11.48c0-2.8.93-5.42,2.79-7.86,1.86-2.44,4.38-4.35,7.58-5.74,3.2-1.38,6.76-2.08,10.7-2.08,5.98,0,10.75,1.5,14.31,4.51,3.56,3.01,5.38,7.23,5.48,12.68v23.05c0,4.6.64,8.26,1.94,11v.8h-11.71ZM543.16,899.63c2.27,0,4.4-.55,6.4-1.65,2-1.1,3.5-2.58,4.51-4.44v-9.63h-6.18c-4.25,0-7.45.74-9.59,2.22-2.14,1.48-3.21,3.57-3.21,6.28,0,2.2.73,3.96,2.2,5.27,1.46,1.31,3.42,1.96,5.88,1.96Z"/>
        <path class="cls-1" d="M575.56,881.97c0-7.93,1.86-14.27,5.6-19.01,3.73-4.74,8.68-7.11,14.85-7.11,5.83,0,10.41,2.03,13.74,6.09l.52-5.15h10.34v49.54c0,6.7-2.09,11.99-6.26,15.87-4.17,3.87-9.8,5.81-16.88,5.81-3.75,0-7.41-.78-10.98-2.34-3.57-1.56-6.29-3.6-8.15-6.12l5.43-6.9c3.53,4.19,7.87,6.28,13.03,6.28,3.81,0,6.82-1.03,9.02-3.09,2.2-2.06,3.31-5.09,3.31-9.09v-3.45c-3.31,3.68-7.71,5.53-13.22,5.53-5.98,0-10.87-2.38-14.66-7.13-3.79-4.75-5.69-11.34-5.69-19.74ZM586.99,882.96c0,5.13,1.04,9.17,3.14,12.11,2.09,2.94,5,4.41,8.71,4.41,4.63,0,8.06-1.98,10.3-5.95v-22.48c-2.17-3.87-5.57-5.81-10.2-5.81-3.78,0-6.71,1.49-8.81,4.49-2.1,2.99-3.14,7.4-3.14,13.22Z"/>
        <path class="cls-1" d="M654.9,908.84c-7.27,0-13.17-2.29-17.69-6.87-4.52-4.58-6.78-10.68-6.78-18.3v-1.42c0-5.1.98-9.66,2.95-13.67,1.97-4.01,4.73-7.14,8.29-9.38,3.56-2.23,7.53-3.35,11.9-3.35,6.96,0,12.33,2.22,16.13,6.66,3.79,4.44,5.69,10.72,5.69,18.84v4.63h-33.39c.35,4.22,1.76,7.56,4.23,10.01,2.47,2.46,5.58,3.68,9.33,3.68,5.26,0,9.54-2.12,12.84-6.38l6.19,5.9c-2.05,3.05-4.78,5.42-8.19,7.11-3.42,1.68-7.25,2.53-11.5,2.53ZM653.53,865.06c-3.15,0-5.69,1.1-7.63,3.31-1.94,2.2-3.17,5.27-3.71,9.21h21.87v-.85c-.25-3.84-1.27-6.74-3.07-8.71-1.79-1.97-4.28-2.95-7.46-2.95Z"/>
      </g>
      <g>
        <path class="cls-1" d="M59.22,720.17c-1.38-.79-2.39-1.95-3.03-3.47-.64-1.53-.96-4.02-.96-7.47,0-5.62.94-10.87,2.81-15.75,1.87-4.88,4.49-9.12,7.84-12.72,3.35-3.6,7.34-6.43,11.98-8.5,4.63-2.07,9.71-3.1,15.23-3.1,7.79,0,14.49,1.53,20.11,4.58,5.62,3.06,10.28,7,13.97,11.83,3.7,4.83,6.43,10.25,8.21,16.27,1.77,6.01,2.66,11.93,2.66,17.75,0,2.27-.03,4.44-.07,6.51-.05,2.07-.17,3.6-.37,4.58-1.68,8.78-4.07,16.19-7.17,22.26-3.11,6.06-7,10.99-11.68,14.79-4.68,3.8-10.23,6.56-16.64,8.28-6.41,1.73-13.66,2.59-21.74,2.59-6.21,0-10.53-.42-12.94-1.26-2.42-.84-3.62-2.64-3.62-5.4,0-.89.1-1.7.3-2.44.2-.74.61-1.38,1.26-1.92.64-.54,1.58-.96,2.81-1.26,1.23-.3,2.88-.39,4.95-.3l4.58.15.3-28.99c0-3.94.02-7.79.07-11.54.05-3.74.12-7.12.22-10.13.1-3.01.17-5.52.22-7.54.05-2.02.07-3.33.07-3.92.1-3.35.67-5.42,1.7-6.21,1.03-.79,2.39-1.18,4.07-1.18,1.38,0,2.66.35,3.85,1.04,1.18.69,2.02,1.73,2.51,3.1.1.3.2.62.3.96.1.35.17.94.22,1.78.05.84.07,2.02.07,3.55v6.29c0,4.14-.03,8.85-.07,14.12-.05,5.28-.1,10.35-.15,15.23-.05,4.88-.1,9.17-.15,12.87-.05,3.7-.08,5.99-.08,6.88l-.15,3.11,1.78-.15c4.63-.3,8.92-1.75,12.87-4.36,3.94-2.61,7.34-6.06,10.2-10.35,2.86-4.29,5.1-9.22,6.73-14.79,1.63-5.57,2.44-11.56,2.44-17.97s-.94-12.25-2.81-16.93c-1.88-4.68-4.27-8.48-7.17-11.39-2.91-2.91-6.14-5.03-9.69-6.36-3.55-1.33-7.05-2-10.5-2-5.03,0-9.24.89-12.64,2.66-3.4,1.78-6.14,4.17-8.21,7.17-2.07,3.01-3.55,6.46-4.44,10.35-.89,3.9-1.33,7.96-1.33,12.2v2.52c0,1.48-.57,2.66-1.7,3.55s-2.39,1.33-3.77,1.33c-1.18,0-2.27-.3-3.25-.89Z"/>
        <path class="cls-1" d="M145.44,734.51c0-4.93.08-9.22.22-12.87.15-3.65.5-6.65,1.04-9.02.55-2.37,1.37-4.12,2.46-5.25,1.1-1.13,2.54-1.7,4.33-1.7,1.99,0,3.68.59,5.08,1.77,1.39,1.18,2.19,2.71,2.39,4.58,0,.79-.08,2.12-.25,3.99-.17,1.87-.33,3.94-.5,6.21-.17,2.27-.31,4.66-.42,7.17-.11,2.51-.17,4.81-.17,6.88,0,2.46.07,4.95.22,7.47.15,2.52.32,4.76.52,6.73.2,1.97.39,3.6.59,4.88.2,1.28.34,1.92.45,1.92.59,0,1.38-1.01,2.37-3.03.98-2.02,2.04-4.58,3.18-7.69,1.13-3.11,2.24-6.56,3.33-10.35,1.08-3.8,1.92-7.52,2.51-11.17.49-3.15,1.28-5.2,2.37-6.14,1.08-.94,2.37-1.4,3.84-1.4,1.68,0,3.25.59,4.73,1.77,1.48,1.18,2.22,2.76,2.22,4.73,0,1.68-.22,3.87-.67,6.58-.44,2.71-1.06,5.6-1.85,8.65-.79,3.06-1.68,6.14-2.66,9.24-.99,3.1-2.02,5.89-3.11,8.35-2.17,5.03-4.66,8.9-7.47,11.61-2.81,2.71-5.94,4.07-9.39,4.07-5.82,0-9.83-3.13-12.05-9.39-2.22-6.26-3.33-15.8-3.33-28.61ZM153.19,696.21c-1.99-.59-3.37-1.58-4.11-2.96-.75-1.38-1.12-3.5-1.12-6.36.2-2.56.8-4.39,1.79-5.47,1-1.08,2.49-1.63,4.49-1.63,2.29,0,4.04.76,5.23,2.29,1.2,1.53,1.8,3.62,1.8,6.29,0,5.42-2.05,8.13-6.13,8.13h-.82c-.25,0-.62-.1-1.12-.3Z"/>
        <path class="cls-1" d="M238.9,721.2c.3.89.44,1.88.44,2.96s-.15,2.54-.44,4.36-.84,4.26-1.63,7.32c-3.16,12.82-6.88,22.21-11.16,28.17-4.29,5.97-8.26,8.95-11.91,8.95-2.37,0-4.44-.72-6.21-2.14-1.78-1.43-3.35-3.28-4.73-5.55-.2-.49-.42-.96-.67-1.41-.25-.44-.42-.67-.52-.67s-.3.22-.59.67-.64.91-1.04,1.41c-1.48,2.27-3.25,4.04-5.32,5.32-2.07,1.28-4.19,1.92-6.36,1.92-2.47,0-4.81-.79-7.03-2.37-2.22-1.58-4.19-3.77-5.92-6.58-1.73-2.81-3.08-6.21-4.07-10.2-.98-3.99-1.48-8.36-1.48-13.09,0-5.03.59-9.61,1.77-13.75,1.18-4.14,2.81-7.71,4.88-10.72,2.07-3.01,4.46-5.35,7.17-7.03,2.71-1.67,5.59-2.51,8.65-2.51,1.18,0,2.52.17,3.99.52,1.48.35,2.66.76,3.55,1.26l1.33.74,1.33-1.33c1.28-1.28,2.61-1.92,3.99-1.92,2.17,0,3.99.64,5.47,1.92,1.48,1.28,2.22,3.7,2.22,7.25,0,3.16-.25,7.27-.74,12.35-.5,5.08-.74,10.28-.74,15.6,0,1.77.02,3.53.07,5.25.05,1.73.12,3.23.22,4.51.1,1.28.25,2.32.44,3.1.2.79.39,1.18.59,1.18.1,0,.3-.25.59-.74,1.18-2.37,2.27-4.66,3.25-6.88.98-2.22,1.95-4.58,2.88-7.1.94-2.52,1.82-5.27,2.66-8.28.84-3.01,1.65-6.43,2.44-10.28.49-2.76,1.21-4.58,2.14-5.47.94-.89,2.24-1.33,3.92-1.33,1.38,0,2.71.42,3.99,1.26,1.28.84,2.12,1.95,2.52,3.33ZM184.33,741.91c0,6.51.44,11.19,1.33,14.05.89,2.86,1.95,4.36,3.18,4.51,1.23.15,2.56-.81,3.99-2.88,1.43-2.07,2.69-4.75,3.77-8.06,1.08-3.3,1.87-6.95,2.37-10.94.49-3.99.44-7.86-.15-11.61-.3-1.87-.81-3.77-1.55-5.69-.74-1.92-1.7-2.88-2.88-2.88-1.38,0-2.66.72-3.84,2.14-1.18,1.43-2.24,3.31-3.18,5.62-.94,2.32-1.68,4.86-2.22,7.62-.54,2.76-.81,5.47-.81,8.14Z"/>
        <path class="cls-1" d="M239.05,754.33c-.1-.79-.17-1.95-.22-3.48-.05-1.53-.07-3.23-.07-5.1,0-2.37.05-4.71.15-7.02.1-2.31.17-4.46.22-6.43.05-1.97.12-3.67.22-5.1.1-1.43.15-2.44.15-3.03v-.3c-.2,0-1.03.15-2.51.44-1.48.3-3.31.44-5.47.44s-4.19-.22-5.77-.67c-1.58-.44-2.83-1.21-3.77-2.29-.94-1.09-1.63-2.52-2.07-4.29s-.67-4.04-.67-6.8c0-3.35.1-6.16.3-8.43.2-2.27.52-4.07.96-5.4.44-1.33,1.06-2.29,1.85-2.88.79-.59,1.78-.94,2.96-1.03,2.37,0,4.22.62,5.55,1.85,1.33,1.23,2,3.62,2,7.17,0,.99-.03,2.15-.07,3.48-.05,1.33-.07,2.49-.07,3.47l-.15,3.25,1.03-.15c.79-.2,1.67-.57,2.66-1.11.98-.54,1.97-1.11,2.96-1.7.98-.59,2-1.13,3.03-1.63,1.03-.49,2-.74,2.88-.74,2.46,0,4.46.79,5.99,2.37,1.53,1.58,2.29,4.68,2.29,9.32,0,2.76-.15,5.99-.44,9.69-.3,3.7-.44,8.6-.44,14.71,0,5.23.12,8.95.37,11.17.25,2.22.47,3.47.67,3.77.39.5,1.18-.22,2.37-2.14,1.18-1.92,2.46-4.46,3.84-7.62,1.38-3.16,2.74-6.68,4.07-10.57,1.33-3.89,2.29-7.52,2.88-10.87.3-1.87.59-3.35.89-4.44s.54-1.9.74-2.44c.2-.54.42-.91.67-1.11.25-.2.52-.44.81-.74.98-.98,2.31-1.48,3.99-1.48s3.23.57,4.66,1.7c1.43,1.13,2.14,2.79,2.14,4.95,0,.59-.07,1.28-.22,2.07-.15.79-.32,1.73-.52,2.81-1.18,5.32-2.69,10.67-4.51,16.04-1.82,5.37-3.87,10.2-6.14,14.49-2.27,4.29-4.71,7.76-7.32,10.42-2.61,2.66-5.3,4.04-8.06,4.14-4.04,0-7.35-1.67-9.91-5.03-2.57-3.35-4.19-7.93-4.88-13.75Z"/>
        <path class="cls-1" d="M297.32,716.47c-1.68-.69-2.83-1.73-3.47-3.11-.64-1.38-.96-3.35-.96-5.92,0-5.72.67-10.99,2-15.82s3.1-8.95,5.32-12.35c2.22-3.4,4.73-6.06,7.54-7.99,2.81-1.92,5.74-2.88,8.8-2.88,3.25,0,6.23.47,8.95,1.41,2.71.94,5.05,2.54,7.02,4.82,1.97,2.27,3.5,5.26,4.58,8.96,1.08,3.71,1.63,8.27,1.63,13.7,0,2.67-.2,7.14-.59,13.41-.39,6.27-.59,14.15-.59,23.63,0,7.11.57,12.66,1.7,16.67,1.13,4,2.39,6,3.77,6,2.37,0,4.63-1.23,6.8-3.7,2.17-2.47,4.12-5.63,5.84-9.48,1.72-3.85,3.23-8.12,4.51-12.82,1.28-4.69,2.22-9.26,2.81-13.7.59-4.24,1.06-7.63,1.4-10.15.34-2.52.61-4.79.81-6.81.2-2.02.32-4.1.37-6.22.05-2.12.12-4.92.22-8.37l.29-12.89.73-1.18c1.07-1.88,2.68-2.81,4.83-2.81,2.93,0,5.07,1.33,6.44,3.99.29.49.51,1.21.66,2.14.15.94.24,2.54.29,4.81.05,2.27.1,5.5.15,9.69.05,4.19.07,9.74.07,16.64v20.11c0,3.06-.03,5.82-.07,8.28-.05,2.46-.07,4.44-.07,5.92-.39,10.75-1.65,19.77-3.76,27.06s-4.87,13.16-8.26,17.6c-3.39,4.44-7.23,7.62-11.5,9.54-4.28,1.92-8.78,2.88-13.49,2.88-2.85,0-5.63-.49-8.33-1.48-2.7-.99-5.11-2.22-7.23-3.7-2.12-1.48-3.84-3.1-5.17-4.88-1.33-1.77-2-3.45-2-5.03,0-3.55,1.82-5.32,5.47-5.32.98,0,1.89.15,2.73.44s1.94,1.13,3.32,2.51c1.77,1.87,3.27,3.08,4.5,3.62,1.23.54,2.97.81,5.24.81,5.5,0,10.08-1.95,13.72-5.84,3.64-3.9,6.44-9.59,8.41-17.08.2-.79.37-1.55.51-2.29.15-.74.22-1.21.22-1.41v-.15c-.3,0-.64.3-1.03.89-1.87,2.96-4.55,5.45-8.04,7.47-3.49,2.02-6.91,3.03-10.25,3.03-6,0-10.82-2.83-14.46-8.5-3.64-5.67-5.45-14.27-5.45-25.81,0-.3.02-1.35.07-3.18.05-1.82.15-4.09.3-6.8.15-2.71.27-5.62.37-8.72.1-3.11.22-6.04.37-8.8.15-2.76.25-5.15.3-7.17.05-2.02.07-3.28.07-3.77,0-5.03-.44-8.92-1.33-11.68-.89-2.76-2.86-4.14-5.92-4.14-1.48,0-2.98.76-4.51,2.29-1.53,1.53-2.91,3.62-4.14,6.29-1.23,2.66-2.24,5.84-3.03,9.54-.79,3.7-1.18,7.67-1.18,11.91v1.18c0,1.48-.44,2.76-1.33,3.84-.89,1.09-2.27,1.63-4.14,1.63-1.09,0-2.02-.25-2.81-.74Z"/>
        <path class="cls-1" d="M454.08,721.2c.3.89.44,1.88.44,2.96s-.15,2.54-.44,4.36c-.3,1.82-.84,4.26-1.63,7.32-3.16,12.82-6.88,22.21-11.16,28.17-4.29,5.97-8.26,8.95-11.91,8.95-2.37,0-4.44-.72-6.21-2.14-1.78-1.43-3.35-3.28-4.73-5.55-.2-.49-.42-.96-.67-1.41-.25-.44-.42-.67-.52-.67s-.3.22-.59.67-.64.91-1.04,1.41c-1.48,2.27-3.25,4.04-5.32,5.32-2.07,1.28-4.19,1.92-6.36,1.92-2.47,0-4.81-.79-7.03-2.37-2.22-1.58-4.19-3.77-5.92-6.58-1.73-2.81-3.08-6.21-4.07-10.2-.98-3.99-1.48-8.36-1.48-13.09,0-5.03.59-9.61,1.77-13.75,1.18-4.14,2.81-7.71,4.88-10.72,2.07-3.01,4.46-5.35,7.17-7.03,2.71-1.67,5.59-2.51,8.65-2.51,1.18,0,2.52.17,3.99.52,1.48.35,2.66.76,3.55,1.26l1.33.74,1.33-1.33c1.28-1.28,2.61-1.92,3.99-1.92,2.17,0,3.99.64,5.47,1.92,1.48,1.28,2.22,3.7,2.22,7.25,0,3.16-.25,7.27-.74,12.35-.5,5.08-.74,10.28-.74,15.6,0,1.77.02,3.53.07,5.25.05,1.73.12,3.23.22,4.51.1,1.28.25,2.32.44,3.1.2.79.39,1.18.59,1.18.1,0,.3-.25.59-.74,1.18-2.37,2.27-4.66,3.25-6.88.98-2.22,1.95-4.58,2.88-7.1.94-2.52,1.82-5.27,2.66-8.28.84-3.01,1.65-6.43,2.44-10.28.49-2.76,1.21-4.58,2.14-5.47.94-.89,2.24-1.33,3.92-1.33,1.38,0,2.71.42,3.99,1.26,1.28.84,2.12,1.95,2.52,3.33ZM399.51,741.91c0,6.51.44,11.19,1.33,14.05.89,2.86,1.95,4.36,3.18,4.51,1.23.15,2.56-.81,3.99-2.88,1.43-2.07,2.69-4.75,3.77-8.06,1.08-3.3,1.87-6.95,2.37-10.94.49-3.99.44-7.86-.15-11.61-.3-1.87-.81-3.77-1.55-5.69-.74-1.92-1.7-2.88-2.88-2.88-1.38,0-2.66.72-3.84,2.14-1.18,1.43-2.24,3.31-3.18,5.62-.94,2.32-1.68,4.86-2.22,7.62-.54,2.76-.81,5.47-.81,8.14Z"/>
        <path class="cls-1" d="M483.5,717.21c.98-.69,2.17-1.03,3.55-1.03,1.68,0,3.2.59,4.58,1.78,1.38,1.19,2.07,2.77,2.07,4.74,0,.59-.22,1.44-.67,2.52s-1.46,3.26-3.03,6.52c-2.86,5.94-5.65,11.35-8.35,16.24-2.71,4.89-5.5,9.09-8.36,12.6-2.86,3.51-5.89,6.25-9.09,8.23-3.21,1.98-6.73,2.96-10.57,2.96-2.76,0-5.23-.49-7.39-1.48-2.17-.98-4.02-2.17-5.55-3.55-1.53-1.38-2.71-2.86-3.55-4.44-.84-1.58-1.26-2.91-1.26-3.99,0-1.38.47-2.61,1.4-3.7.94-1.08,2.29-1.63,4.07-1.63,1.08,0,2.07.3,2.96.89.89.59,1.78,1.26,2.66,2,.89.74,1.8,1.4,2.74,2,.94.59,2,.89,3.18.89,2.27,0,4.02-1.04,5.25-3.11,1.23-2.07,1.85-4.93,1.85-8.58,0-2.07-.44-3.7-1.33-4.88-.89-1.18-2.76-2.76-5.62-4.73-3.94-2.86-6.9-5.74-8.87-8.65-1.97-2.91-2.96-6.09-2.96-9.54,0-4.44,1.38-7.93,4.14-10.5,2.76-2.56,6.06-3.84,9.91-3.84,1.58,0,3.25.27,5.03.81,1.77.54,3.35,1.28,4.73,2.22,1.38.94,2.54,2,3.47,3.18.94,1.18,1.41,2.42,1.41,3.7,0,3.55-1.78,5.32-5.32,5.32-1.18,0-2.42-.52-3.7-1.55-1.28-1.03-2.66-1.55-4.14-1.55-1.68,0-2.51,1.09-2.51,3.26,0,1.09.47,2.2,1.4,3.34.94,1.14,2.74,2.65,5.4,4.52,2.76,1.98,4.81,3.66,6.14,5.04,1.33,1.38,2.54,3.02,3.62,4.89l.89,1.48,1.18-2.22c3.65-7.22,6.21-12.31,7.69-15.27,1.48-2.96,2.46-4.6,2.96-4.89Z"/>
        <path class="cls-1" d="M528.31,719.28c-1.28,1.18-2.42,2.71-3.4,4.58-.99,1.87-1.87,3.92-2.66,6.14-.79,2.22-1.46,4.56-2,7.02-.54,2.46-.96,4.93-1.26,7.39-.1.79-.2,1.4-.3,1.85-.1.44-.2,1.09-.3,1.92-.1.84-.17,2.02-.22,3.55-.05,1.53-.07,3.67-.07,6.43-.1,2.57-.17,4.56-.22,5.99-.05,1.43-.12,2.52-.22,3.25-.1.74-.25,1.31-.44,1.7-.2.39-.49.79-.89,1.18-1.18,1.18-2.61,1.78-4.29,1.78-2.17,0-3.89-.74-5.18-2.22-1.28-1.48-1.92-3.5-1.92-6.06v-4.73c0-1.68.02-3.85.07-6.51.05-2.66.1-5.4.15-8.21.05-2.81.1-5.5.15-8.06.05-2.56.07-4.63.07-6.21,0-2.66-.05-4.73-.15-6.21-.1-1.48-.22-2.56-.37-3.25-.14-.69-.27-1.11-.36-1.26s-.19-.22-.29-.22l-.58.3c-3.02,2.17-5.63,6.48-7.83,12.94-2.19,6.46-3.29,15.41-3.29,26.84v5.4c0,1.33-.05,2.37-.15,3.1s-.25,1.33-.45,1.77c-.2.44-.45.96-.75,1.55-.3.69-.88,1.21-1.72,1.55-.85.34-1.77.52-2.77.52-2.59,0-4.49-1.03-5.68-3.11-1.2-2.07-1.79-4.53-1.79-7.39v-11.98c0-8.67.05-15.92.15-21.74.1-5.82.39-10.43.89-13.83.49-3.4,1.26-5.81,2.29-7.25,1.04-1.43,2.49-2.14,4.36-2.14,1.77,0,3.3.69,4.58,2.07,1.28,1.38,2.02,2.66,2.22,3.85l1.03-.74c1.38-1.38,3.01-2.52,4.88-3.4,1.87-.89,3.7-1.33,5.47-1.33,1.97,0,3.85.57,5.62,1.7,1.77,1.13,3.16,2.64,4.14,4.51.49.99.84,1.48,1.03,1.48.3,0,.89-.54,1.77-1.63,1.67-2.07,3.55-3.72,5.62-4.95,2.07-1.23,4.24-1.85,6.51-1.85,2.07,0,4.12.49,6.14,1.48,2.02.99,3.72,2.42,5.1,4.29.49.79.96,1.4,1.4,1.85.44.44.81,1.16,1.11,2.14.3.99.54,2.39.74,4.22.2,1.83.3,4.51.3,8.06,0,2.47-.03,5.15-.07,8.06-.05,2.91-.1,5.69-.15,8.35-.05,2.66-.1,5.03-.15,7.1-.05,2.07-.07,3.5-.07,4.29.19,1.09.34,1.63.44,1.63.39,0,1.11-1.11,2.14-3.33,1.03-2.22,2.14-4.9,3.33-8.06,1.18-3.15,2.32-6.46,3.4-9.91,1.08-3.45,1.87-6.41,2.37-8.87.49-2.56,1.01-4.53,1.55-5.92.54-1.38,1.08-2.41,1.63-3.1.54-.69,1.16-1.08,1.85-1.18.69-.1,1.43-.15,2.22-.15,1.97,0,3.57.62,4.8,1.85,1.23,1.23,1.85,2.83,1.85,4.81,0,.99-.27,2.83-.81,5.55-.54,2.71-1.31,5.77-2.29,9.17-.99,3.4-2.12,6.98-3.4,10.72-1.28,3.75-2.71,7.15-4.29,10.2-2.57,5.03-5.05,8.63-7.47,10.79-2.42,2.17-5.25,3.25-8.5,3.25-4.44,0-7.57-1.7-9.39-5.1-1.83-3.4-2.74-8.8-2.74-16.19,0-2.07.02-4.29.07-6.65.05-2.37.1-4.71.15-7.02.05-2.31.1-4.49.15-6.51.05-2.02.07-3.72.07-5.1,0-1.97-.03-3.5-.07-4.58-.05-1.08-.12-1.9-.22-2.44-.1-.54-.22-.86-.37-.96-.15-.1-.32-.15-.52-.15-.3,0-.89.44-1.77,1.33Z"/>
        <path class="cls-1" d="M556.26,734.51c0-4.93.08-9.22.22-12.87.15-3.65.5-6.65,1.04-9.02.55-2.37,1.37-4.12,2.46-5.25,1.1-1.13,2.54-1.7,4.33-1.7,1.99,0,3.68.59,5.08,1.77,1.39,1.18,2.19,2.71,2.39,4.58,0,.79-.08,2.12-.25,3.99-.17,1.87-.33,3.94-.5,6.21-.17,2.27-.31,4.66-.42,7.17-.11,2.51-.17,4.81-.17,6.88,0,2.46.07,4.95.22,7.47.15,2.52.32,4.76.52,6.73.2,1.97.39,3.6.59,4.88.2,1.28.34,1.92.45,1.92.59,0,1.38-1.01,2.37-3.03.98-2.02,2.04-4.58,3.18-7.69,1.13-3.11,2.24-6.56,3.33-10.35,1.08-3.8,1.92-7.52,2.51-11.17.49-3.15,1.28-5.2,2.37-6.14,1.08-.94,2.37-1.4,3.84-1.4,1.68,0,3.25.59,4.73,1.77,1.48,1.18,2.22,2.76,2.22,4.73,0,1.68-.22,3.87-.67,6.58-.44,2.71-1.06,5.6-1.85,8.65-.79,3.06-1.68,6.14-2.66,9.24-.99,3.1-2.02,5.89-3.11,8.35-2.17,5.03-4.66,8.9-7.47,11.61-2.81,2.71-5.94,4.07-9.39,4.07-5.82,0-9.83-3.13-12.05-9.39-2.22-6.26-3.33-15.8-3.33-28.61ZM564.01,696.21c-1.99-.59-3.37-1.58-4.11-2.96-.75-1.38-1.12-3.5-1.12-6.36.2-2.56.8-4.39,1.79-5.47,1-1.08,2.49-1.63,4.49-1.63,2.29,0,4.04.76,5.23,2.29,1.2,1.53,1.8,3.62,1.8,6.29,0,5.42-2.05,8.13-6.13,8.13h-.82c-.25,0-.62-.1-1.12-.3Z"/>
        <path class="cls-1" d="M648.84,727.56c-1.68,6.41-3.58,12.33-5.69,17.75-2.12,5.42-4.34,10.11-6.65,14.05-2.32,3.94-4.64,7.02-6.95,9.24-2.32,2.22-4.51,3.33-6.58,3.33-4.44,0-7.54-1.7-9.32-5.1-1.77-3.4-2.66-9.19-2.66-17.38,0-2.46.05-5.4.15-8.8.1-3.4.15-6.38.15-8.95,0-5.22-.15-8.9-.44-11.02-.3-2.12-.69-3.18-1.18-3.18-.2,0-.54.25-1.03.74-1.09,1.18-2.12,2.46-3.1,3.85-.99,1.38-1.92,2.96-2.81,4.73-.89,1.78-1.75,3.85-2.59,6.21-.84,2.37-1.6,5.18-2.29,8.43-.2.79-.37,1.48-.52,2.07s-.25,1.23-.3,1.92c-.05.69-.1,1.46-.15,2.29-.05.84-.07,1.9-.07,3.18,0,1.48.02,3.28.07,5.4.05,2.12.12,3.87.22,5.25l.3,5.32-.74,1.48c-.49,1.09-1.26,1.97-2.29,2.66-1.03.69-2.15,1.03-3.33,1.03-1.77,0-3.16-.32-4.14-.96-.99-.64-1.75-1.78-2.29-3.4-.54-1.63-.89-3.82-1.03-6.58-.15-2.76-.22-6.31-.22-10.65,0-3.45.05-7.42.15-11.91.1-4.48.25-9.54.44-15.16.1-2.96.17-5.32.22-7.1.05-1.78.15-3.18.3-4.22s.3-1.8.44-2.29c.15-.49.37-.94.67-1.33.49-.79,1.18-1.38,2.07-1.77.89-.39,1.82-.59,2.81-.59,1.38,0,2.78.47,4.22,1.4,1.43.94,2.29,2.15,2.59,3.62,0,.49.1.74.3.74,2.07-2.27,4.09-3.94,6.06-5.03,1.97-1.08,4.29-1.63,6.95-1.63,3.16,0,6.06,1.43,8.73,4.29,2.66,2.86,4.29,7.1,4.88,12.72,0,.49.02,1.6.07,3.33.05,1.73.07,3.75.07,6.06v7.32c0,2.57.02,4.93.07,7.1.05,2.17.07,3.94.07,5.32s.05,2.07.15,2.07c.2,0,.74-.84,1.63-2.52.89-1.67,1.87-3.84,2.96-6.51,1.09-2.66,2.24-5.67,3.48-9.02,1.23-3.35,2.34-6.7,3.33-10.06.69-2.56,1.33-4.49,1.92-5.77.59-1.28,1.16-2.19,1.7-2.74s1.08-.81,1.63-.81h1.85c1.67,0,3.2.57,4.58,1.7,1.38,1.13,2.07,2.69,2.07,4.66,0,1.09-.3,2.81-.89,5.17Z"/>
        <path class="cls-1" d="M667.59,732.81c-1.7,3.74-3.76,7.47-6.21,11.21-2.44,3.74-5.1,7.13-7.96,10.17l-2.07,2.07,1.33,1.18c1.18,1.28,2.51,1.92,3.99,1.92,2.96,0,5.94-1.41,8.95-4.22,3.01-2.81,5.64-6.43,7.91-10.87,2.86-5.52,4.83-10.06,5.92-13.61,1.08-3.55,1.92-6.36,2.51-8.43.59-2.07,1.26-3.5,2-4.29.74-.79,2.19-1.18,4.36-1.18,1.38,0,2.71.42,3.99,1.26,1.28.84,1.92,2.1,1.92,3.77-.1,4.14-1.01,8.95-2.74,14.42-1.73,5.47-3.87,10.72-6.43,15.75-3.75,7.3-7.86,12.55-12.35,15.75-4.49,3.21-9.39,4.81-14.71,4.81-3.75,0-7.15-.89-10.2-2.66-3.06-1.77-5.69-4.18-7.91-7.23-2.22-3.05-3.94-6.62-5.18-10.7-1.23-4.08-1.85-8.48-1.85-13.21s.72-9.34,2.15-13.28c1.43-3.94,3.28-7.3,5.55-10.11,2.27-2.8,4.8-4.97,7.62-6.49,2.81-1.53,5.55-2.29,8.21-2.29,2.09,0,3.99.44,5.68,1.33s3.14,2.02,4.33,3.39c1.2,1.38,2.12,2.97,2.77,4.79.65,1.82.97,3.61.97,5.38,0,3.64-.85,7.42-2.54,11.35ZM650.02,737.03c2.27-3.35,3.97-6.58,5.1-9.69,1.13-3.1,1.7-5.64,1.7-7.62,0-.69-.05-1.03-.15-1.03-1.09,0-2.17.57-3.25,1.7-1.09,1.14-2.12,2.59-3.11,4.36-.99,1.77-1.8,3.8-2.44,6.06-.64,2.27-1.01,4.54-1.11,6.8l-.15,3.7.59-.44c.2-.2.57-.67,1.11-1.41.54-.74,1.11-1.55,1.7-2.44Z"/>
      </g>
    </g>
  </g>
</svg>